<svg width="102" height="102" viewBox="0 0 102 102" fill="none" xmlns="http://www.w3.org/2000/svg">
<path d="M51 79.6875C57.375 79.6875 67.9336 79.6078 80.0461 72.5953C92.1586 65.5828 96.1031 56.857 97.3383 52.3547C97.452 51.9491 97.4832 51.5248 97.43 51.107C97.3768 50.6891 97.2403 50.2862 97.0285 49.9221C96.8167 49.558 96.534 49.2401 96.1971 48.9872C95.8602 48.7343 95.476 48.5517 95.0672 48.45C92.1586 47.693 87.0586 47.0156 80.5242 48.5696" stroke="#81D8F7" stroke-width="6.375" stroke-linecap="round" stroke-linejoin="round"/>
<path d="M21.4758 48.5297C14.9414 47.0156 9.84141 47.693 6.93282 48.45C6.52404 48.5517 6.13982 48.7343 5.80293 48.9872C5.46603 49.24 5.18332 49.5579 4.97153 49.9221C4.75975 50.2862 4.62321 50.6891 4.56999 51.107C4.51677 51.5248 4.54797 51.9491 4.66173 52.3547C5.89688 56.857 9.84141 65.6227 21.9539 72.5953C34.0664 79.568 44.625 79.6875 51 79.6875" stroke="#81D8F7" stroke-width="6.375" stroke-linecap="round" stroke-linejoin="round"/>
<path d="M51 79.6875C51 79.6875 66.9375 71.0015 66.9375 47.8125C66.9375 29.6437 57.1359 20.4 52.9125 17.2125C52.3582 16.8047 51.6881 16.5848 51 16.5848C50.3119 16.5848 49.6418 16.8047 49.0875 17.2125C44.8641 20.4 35.0625 29.6437 35.0625 47.8125C35.0625 71.0015 51 79.6875 51 79.6875Z" stroke="#81D8F7" stroke-width="6.375" stroke-linecap="round" stroke-linejoin="round"/>
<path d="M51 79.6875C55.7812 78.6516 68.6508 71.4 76.3805 58.0125C84.1102 44.625 82.1977 33.9867 80.6836 29.325C80.452 28.5753 79.9455 27.9409 79.2655 27.5492C78.5856 27.1575 77.7827 27.0375 77.018 27.2133C72.4432 28.2379 68.1636 30.2959 64.507 33.2297" stroke="#81D8F7" stroke-width="6.375" stroke-linecap="round" stroke-linejoin="round"/>
<path d="M37.493 33.2297C33.8364 30.2959 29.5568 28.2379 24.982 27.2133C24.2173 27.0375 23.4144 27.1575 22.7345 27.5492C22.0545 27.9409 21.548 28.5753 21.3164 29.325C19.8023 33.9867 17.8898 44.6649 25.6195 58.0125C33.3492 71.3602 46.2188 78.6516 51 79.6875" stroke="#81D8F7" stroke-width="6.375" stroke-linecap="round" stroke-linejoin="round"/>
</svg>